<?xml version="1.0" encoding="utf-8"?><svg viewBox="0 0 205 212" xmlns="http://www.w3.org/2000/svg" xmlns:xlink="http://www.w3.org/1999/xlink"><style>:root>svg{display:none}:root>svg:target{display:block}</style><svg fill="none" viewBox="0 0 100 212" id="1" xmlns="http://www.w3.org/2000/svg"><path d="M0 62.994h50V212h50V0H62.424c-4.242 25.44-35.151 37.857-56.06 37.857H0v25.137z" fill="#E0E0E0"/></svg><svg fill="none" viewBox="0 0 143 212" id="2" xmlns="http://www.w3.org/2000/svg"><path d="M2.072 212v-34.443l69.576-72.448c14.014-14.45 21.02-26.722 21.02-36.818 0-6.532-1.973-11.777-5.92-15.736-3.948-4.157-9.376-6.236-16.284-6.236-13.817 0-23.982 7.522-30.495 22.566L0 45.43c6.316-14.846 15.79-26.13 28.422-33.85C41.054 3.86 54.871 0 69.872 0c19.343 0 35.824 6.037 49.443 18.112 13.816 11.877 20.724 27.91 20.724 48.1 0 21.973-10.757 43.747-32.271 65.323l-34.344 34.74H143V212H2.072z" fill="#E0E0E0"/></svg><svg fill="none" viewBox="0 0 148 212" id="3" xmlns="http://www.w3.org/2000/svg"><path d="M103.896 84.325c13.221 4.553 23.877 11.976 31.968 22.269C143.955 116.689 148 128.665 148 142.521c0 21.774-7.301 38.797-21.904 51.07C111.493 205.864 93.635 212 72.52 212c-16.379 0-31.08-3.761-44.104-11.283C15.589 193.195 6.117 182.11 0 167.462l40.848-23.753c5.13 14.648 15.688 21.972 31.672 21.972 9.275 0 16.28-2.178 21.016-6.533 4.736-4.354 7.104-9.897 7.104-16.627 0-6.73-2.368-12.273-7.104-16.627-4.736-4.355-11.741-6.533-21.016-6.533h-9.768l-18.056-27.02 37.592-47.803H6.512V0h133.2v38.6l-35.816 45.725z" fill="#E0E0E0"/></svg><svg fill="none" viewBox="0 0 8 41" id="arrow-down" xmlns="http://www.w3.org/2000/svg"><path d="M3.646 40.354a.5.5 0 00.708 0l3.182-3.182a.5.5 0 10-.708-.707L4 39.293l-2.828-2.828a.5.5 0 10-.708.707l3.182 3.182zM3.5 0v40h1V0h-1z" fill="#fff"/></svg><svg fill="none" viewBox="0 0 38 8" id="arrow-right" xmlns="http://www.w3.org/2000/svg"><path d="M37.354 4.354a.5.5 0 000-.708L34.172.464a.5.5 0 10-.707.708L36.293 4l-2.828 2.828a.5.5 0 10.707.708l3.182-3.182zM0 4.5h37v-1H0v1z" fill="#fff"/></svg><svg fill="none" viewBox="0 0 16 17" id="fb-icon" xmlns="http://www.w3.org/2000/svg"><path fill-rule="evenodd" clip-rule="evenodd" d="M3 .004h10a3 3 0 013 3v10a3 3 0 01-3 3H3a3 3 0 01-3-3v-10a3 3 0 013-3zm8 10.461h1.556L13 8.39h-2V7.004c-.105-.587.06-1.008.889-.923H13V4.004c-.188.058-.834 0-1.556 0-1.597 0-2.67.994-2.666 2.77v1.615H7v2.076h1.778v5.539H11v-5.539z" fill="#5A5A5A"/></svg><svg fill="none" viewBox="0 0 16 17" id="fb-icon-2" xmlns="http://www.w3.org/2000/svg"><path fill-rule="evenodd" clip-rule="evenodd" d="M3 .004h10a3 3 0 013 3v10a3 3 0 01-3 3H3a3 3 0 01-3-3v-10a3 3 0 013-3zm8 10.461h1.556L13 8.39h-2V7.004c-.105-.587.06-1.008.889-.923H13V4.004c-.188.058-.834 0-1.556 0-1.597 0-2.67.994-2.666 2.77v1.615H7v2.076h1.778v5.539H11v-5.539z" fill="#fff"/></svg><svg fill="none" viewBox="0 0 16 17" id="fb-icon-2-h" xmlns="http://www.w3.org/2000/svg"><path fill-rule="evenodd" clip-rule="evenodd" d="M3 .004h10a3 3 0 013 3v10a3 3 0 01-3 3H3a3 3 0 01-3-3v-10a3 3 0 013-3zm8 10.461h1.556L13 8.39h-2V7.004c-.105-.587.06-1.008.889-.923H13V4.004c-.188.058-.834 0-1.556 0-1.597 0-2.67.994-2.666 2.77v1.615H7v2.076h1.778v5.539H11v-5.539z" fill="url(#hpaint0_linear)"/><defs><linearGradient id="hpaint0_linear" x1=".84" y1="6.016" x2="12.973" y2="3.678" gradientUnits="userSpaceOnUse"><stop stop-color="#00009A"/><stop offset=".794" stop-color="#EB3626"/><stop offset="1" stop-color="#EB3423"/></linearGradient></defs></svg><svg fill="none" viewBox="0 0 26 26" id="fb-icon-color" xmlns="http://www.w3.org/2000/svg"><path d="M22.497 25.5h-5.073l.014-8.29h2.71a1.07 1.07 0 001.062-.945l.355-2.994a1.07 1.07 0 00-1.062-1.196h-3.08V10.07c0-.547.082-.867.244-1.06.145-.172.453-.35 1.2-.35h0l1.51-.001h0a1.07 1.07 0 001.068-1.07V5.064c0-.59-.479-1.07-1.07-1.07h-2.457c-1.6 0-2.998.49-3.999 1.479-1.002.99-1.548 2.426-1.548 4.208v2.394h-1.91a1.07 1.07 0 00-1.07 1.074v0l.012 2.995a1.07 1.07 0 001.07 1.065h1.913l-.014 8.29H3.504A3.004 3.004 0 01.5 22.497V3.504A3.004 3.004 0 013.504.5h18.992A3.004 3.004 0 0125.5 3.504v18.992a3.003 3.003 0 01-3.003 3.004z" stroke="url(#ipaint0_linear)"/><defs><linearGradient id="ipaint0_linear" x1="1.366" y1="9.769" x2="21.08" y2="5.97" gradientUnits="userSpaceOnUse"><stop stop-color="#00009A"/><stop offset=".794" stop-color="#EB3626"/><stop offset="1" stop-color="#EB3423"/></linearGradient></defs></svg><svg fill="none" viewBox="0 0 26 26" id="fb-icon-color-h" xmlns="http://www.w3.org/2000/svg"><path d="M22.496 0H3.504A3.504 3.504 0 000 3.504v18.992A3.504 3.504 0 003.504 26h9.367l.016-9.291h-2.414a.57.57 0 01-.57-.567l-.011-2.995a.57.57 0 01.57-.572h2.409V9.681c0-3.358 2.05-5.187 5.047-5.187h2.458a.57.57 0 01.57.57v2.525a.57.57 0 01-.57.57h-1.509c-1.629 0-1.944.775-1.944 1.91v2.506h3.58a.57.57 0 01.565.637l-.355 2.994a.57.57 0 01-.565.503h-3.21L16.924 26h5.574A3.504 3.504 0 0026 22.497V3.504A3.504 3.504 0 0022.496 0z" fill="url(#jpaint0_linear)"/><defs><linearGradient id="jpaint0_linear" x1="1.366" y1="9.769" x2="21.08" y2="5.97" gradientUnits="userSpaceOnUse"><stop stop-color="#00009A"/><stop offset=".794" stop-color="#EB3626"/><stop offset="1" stop-color="#EB3423"/></linearGradient></defs></svg><svg fill="none" viewBox="0 0 16 16" id="insta-icon" xmlns="http://www.w3.org/2000/svg"><path d="M11.233 0H4.766A4.772 4.772 0 000 4.766v6.467A4.772 4.772 0 004.766 16h6.467A4.772 4.772 0 0016 11.233V4.766A4.772 4.772 0 0011.233 0zm3.157 11.233a3.157 3.157 0 01-3.157 3.157H4.766a3.157 3.157 0 01-3.156-3.157V4.766A3.157 3.157 0 014.766 1.61h6.467a3.157 3.157 0 013.157 3.156v6.467z" fill="#5A5A5A"/><path d="M8 3.862A4.143 4.143 0 003.862 8 4.143 4.143 0 008 12.138 4.143 4.143 0 0012.138 8 4.143 4.143 0 008 3.862zm0 6.667A2.529 2.529 0 118 5.47a2.529 2.529 0 010 5.058zM12.146 4.885a.992.992 0 100-1.984.992.992 0 000 1.984z" fill="#5A5A5A"/></svg><svg fill="none" viewBox="0 0 16 16" id="insta-icon-2" xmlns="http://www.w3.org/2000/svg"><path d="M11.233 0H4.766A4.772 4.772 0 000 4.766v6.467A4.772 4.772 0 004.766 16h6.467A4.772 4.772 0 0016 11.233V4.766A4.772 4.772 0 0011.233 0zm3.157 11.233a3.157 3.157 0 01-3.157 3.157H4.766a3.157 3.157 0 01-3.156-3.157V4.766A3.157 3.157 0 014.766 1.61h6.467a3.157 3.157 0 013.157 3.156v6.467z" fill="#fff"/><path d="M8 3.862A4.143 4.143 0 003.862 8 4.143 4.143 0 008 12.138 4.143 4.143 0 0012.138 8 4.143 4.143 0 008 3.862zm0 6.667A2.529 2.529 0 118 5.47a2.529 2.529 0 010 5.058zM12.146 4.885a.992.992 0 100-1.984.992.992 0 000 1.984z" fill="#fff"/></svg><svg fill="none" viewBox="0 0 16 16" id="insta-icon-2-h" xmlns="http://www.w3.org/2000/svg"><path d="M11.233 0H4.766A4.772 4.772 0 000 4.766v6.467A4.772 4.772 0 004.766 16h6.467A4.772 4.772 0 0016 11.233V4.766A4.772 4.772 0 0011.233 0zm3.157 11.233a3.157 3.157 0 01-3.157 3.157H4.766a3.157 3.157 0 01-3.156-3.157V4.766A3.157 3.157 0 014.766 1.61h6.467a3.157 3.157 0 013.157 3.156v6.467z" fill="url(#mpaint0_linear)"/><path d="M8 3.862A4.143 4.143 0 003.862 8 4.143 4.143 0 008 12.138 4.143 4.143 0 0012.138 8 4.143 4.143 0 008 3.862zm0 6.667A2.529 2.529 0 118 5.47a2.529 2.529 0 010 5.058z" fill="url(#mpaint1_linear)"/><path d="M12.146 4.885a.992.992 0 100-1.984.992.992 0 000 1.984z" fill="url(#mpaint2_linear)"/><defs><linearGradient id="mpaint0_linear" x1=".84" y1="6.012" x2="12.973" y2="3.674" gradientUnits="userSpaceOnUse"><stop stop-color="#00009A"/><stop offset=".794" stop-color="#EB3626"/><stop offset="1" stop-color="#EB3423"/></linearGradient><linearGradient id="mpaint1_linear" x1="4.297" y1="6.971" x2="10.572" y2="5.762" gradientUnits="userSpaceOnUse"><stop stop-color="#00009A"/><stop offset=".794" stop-color="#EB3626"/><stop offset="1" stop-color="#EB3423"/></linearGradient><linearGradient id="mpaint2_linear" x1="11.259" y1="3.647" x2="12.763" y2="3.357" gradientUnits="userSpaceOnUse"><stop stop-color="#00009A"/><stop offset=".794" stop-color="#EB3626"/><stop offset="1" stop-color="#EB3423"/></linearGradient></defs></svg><svg fill="none" viewBox="0 0 28 28" id="insta-icon-color" xmlns="http://www.w3.org/2000/svg"><path d="M19.255 1H8.745C4.476 1 1 4.475 1 8.746v10.508C1 23.526 4.475 27 8.746 27h10.508C23.526 27 27 23.525 27 19.255V8.745C27 4.476 23.525 1 19.255 1zm5.13 18.255a5.13 5.13 0 01-5.13 5.13H8.745a5.13 5.13 0 01-5.13-5.13V8.745a5.13 5.13 0 015.13-5.13h10.51a5.13 5.13 0 015.13 5.13v10.51z" stroke="url(#npaint0_linear)"/><path d="M13.999 7.275A6.732 6.732 0 007.274 14 6.732 6.732 0 0014 20.724 6.732 6.732 0 0020.724 14a6.732 6.732 0 00-6.725-6.725zm0 10.834a4.109 4.109 0 110-8.218 4.109 4.109 0 010 8.218z" stroke="url(#npaint1_linear)"/><defs><linearGradient id="npaint0_linear" x1="2.366" y1="10.769" x2="22.08" y2="6.97" gradientUnits="userSpaceOnUse"><stop stop-color="#00009A"/><stop offset=".794" stop-color="#EB3626"/><stop offset="1" stop-color="#EB3423"/></linearGradient><linearGradient id="npaint1_linear" x1="7.981" y1="12.329" x2="18.179" y2="10.364" gradientUnits="userSpaceOnUse"><stop stop-color="#00009A"/><stop offset=".794" stop-color="#EB3626"/><stop offset="1" stop-color="#EB3423"/></linearGradient></defs></svg><svg fill="none" viewBox="0 0 26 26" id="insta-icon-color-h" xmlns="http://www.w3.org/2000/svg"><path d="M18.255 0H7.745C3.476 0 0 3.475 0 7.746v10.508C0 22.526 3.475 26 7.746 26h10.508C22.526 26 26 22.525 26 18.255V7.745C26 3.476 22.525 0 18.255 0zm5.13 18.255a5.13 5.13 0 01-5.13 5.13H7.745a5.13 5.13 0 01-5.13-5.13V7.745a5.13 5.13 0 015.13-5.13h10.51a5.13 5.13 0 015.13 5.13v10.51z" fill="url(#opaint0_linear)"/><path d="M12.999 6.275A6.732 6.732 0 006.274 13 6.732 6.732 0 0013 19.724 6.732 6.732 0 0019.724 13a6.732 6.732 0 00-6.725-6.725zm0 10.834a4.109 4.109 0 110-8.218 4.109 4.109 0 010 8.218z" fill="url(#opaint1_linear)"/><defs><linearGradient id="opaint0_linear" x1="1.366" y1="9.769" x2="21.08" y2="5.97" gradientUnits="userSpaceOnUse"><stop stop-color="#00009A"/><stop offset=".794" stop-color="#EB3626"/><stop offset="1" stop-color="#EB3423"/></linearGradient><linearGradient id="opaint1_linear" x1="6.981" y1="11.329" x2="17.179" y2="9.364" gradientUnits="userSpaceOnUse"><stop stop-color="#00009A"/><stop offset=".794" stop-color="#EB3626"/><stop offset="1" stop-color="#EB3423"/></linearGradient></defs></svg><svg fill="none" viewBox="0 0 205 28" id="logo" xmlns="http://www.w3.org/2000/svg"><g clip-path="url(#pclip0)" fill="#fff"><path d="M189.424 19.528c.442 0 .8-.334.8-.746 0-.413-.358-.747-.8-.747-.442 0-.8.334-.8.747 0 .412.358.746.8.746zM106.6.22a.774.774 0 01.516-.18h18.005c.455 0 .687.225.687.68 0 .428-.228.64-.687.64h-18.005a.77.77 0 01-.516-.18.575.575 0 01-.213-.46.59.59 0 01.213-.5zM56.6.12c.085-.054.213-.08.388-.08.284 0 .483.093.601.278l11.462 17.054V.68c0-.185.067-.344.19-.481A.656.656 0 0169.733 0c.199 0 .37.066.516.199a.639.639 0 01.213.481v18.972c0 .344-.17.56-.516.64-.398 0-.668-.093-.814-.278L56.387 1.038c-.256-.371-.185-.68.213-.919zM45.223 27.797a.657.657 0 01-.492.198H29.192a.723.723 0 01-.51-.198.632.632 0 01-.214-.482V15.738c0-.185.071-.345.213-.481a.723.723 0 01.511-.2h11.69c.199 0 .369.067.516.2a.639.639 0 01.213.481c0 .186-.071.34-.213.46a.783.783 0 01-.516.18H29.874V26.68h14.857c.454 0 .686.212.686.64a.665.665 0 01-.194.478z"/><path d="M42.633 23.486a.639.639 0 01.213.481c0 .186-.07.34-.213.46a.784.784 0 01-.516.18h-9.289c-.454 0-.686-.211-.686-.64v-5.393c0-.455.227-.68.686-.68.2 0 .37.062.516.18.142.12.213.288.213.5v4.713h8.56c.204 0 .374.066.516.199zM33.557 4.713v4.713c0 .212-.07.38-.213.5a.784.784 0 01-.516.18c-.454 0-.686-.225-.686-.68V4.033c0-.429.227-.64.686-.64h9.29c.198 0 .368.061.515.18.142.12.213.274.213.46a.646.646 0 01-.213.481.734.734 0 01-.516.2h-8.56z"/><path d="M44.73 1.316H29.875v10.305h11.003c.199 0 .37.058.516.177.142.12.213.274.213.46a.646.646 0 01-.213.48.735.735 0 01-.516.2H29.192a.723.723 0 01-.51-.2.639.639 0 01-.214-.48V.68c0-.185.071-.349.213-.481A.715.715 0 0129.192 0h15.544a.663.663 0 01.682.68c0 .424-.228.636-.687.636zM56.59 25.363c0 .428-.241.64-.729.64-.454 0-.686-.212-.686-.64V14.06c0-.45.227-.68.686-.68.488 0 .73.225.73.68v11.303z"/><path d="M70.116 27.92c-.17.054-.298.08-.383.08a.678.678 0 01-.597-.318L52.822 2.995V27.36c0 .185-.071.34-.214.459a.783.783 0 01-.515.181c-.455 0-.687-.212-.687-.64V.68c0-.344.17-.56.511-.64a.197.197 0 00.085-.018.197.197 0 01.086-.017c.255 0 .454.106.601.318l17.636 26.679c.265.37.194.676-.209.919zM74.23 27.36c0 .428-.24.64-.729.64-.454 0-.686-.212-.686-.64V2.915a.7.7 0 01.19-.481.657.657 0 01.492-.199c.227 0 .407.066.535.199a.668.668 0 01.194.481V27.36h.005zM116.381 27.271c0 .186-.071.34-.213.46a.773.773 0 01-.516.18c-.454 0-.686-.211-.686-.64V4.872h-7.859c-.488 0-.73-.212-.73-.64 0-.186.067-.345.195-.482.127-.132.307-.199.535-.199h8.54c.199 0 .37.067.516.2a.63.63 0 01.214.48v23.04h.004zM127.469 4.872h-7.234v22.487c0 .429-.227.641-.687.641a.795.795 0 01-.516-.181.575.575 0 01-.213-.46V4.233c0-.186.071-.345.213-.482a.727.727 0 01.516-.199h7.921c.227 0 .407.067.535.2a.667.667 0 01.194.48c0 .429-.241.641-.729.641zM151.26 27.797a.658.658 0 01-.493.198h-15.543a.722.722 0 01-.511-.198.632.632 0 01-.213-.482V15.738c0-.185.071-.345.213-.481a.722.722 0 01.511-.2h11.689c.199 0 .37.067.516.2a.639.639 0 01.213.481c0 .186-.071.34-.213.46a.783.783 0 01-.516.18h-11.002V26.68h14.856c.455 0 .687.212.687.64a.69.69 0 01-.194.478z"/><path d="M148.67 23.486a.639.639 0 01.213.481c0 .186-.071.34-.213.46a.783.783 0 01-.516.18h-9.289c-.455 0-.687-.211-.687-.64v-5.393c0-.455.228-.68.687-.68.199 0 .369.062.516.18.142.12.213.288.213.5v4.713h8.56c.199 0 .369.066.516.199zM139.594 4.713v4.713c0 .212-.071.38-.213.5a.783.783 0 01-.516.18c-.455 0-.687-.225-.687-.68V4.033c0-.429.228-.64.687-.64h9.289c.199 0 .369.061.516.18.142.12.213.274.213.46a.646.646 0 01-.213.481.734.734 0 01-.516.2h-8.56z"/><path d="M150.767 1.316h-14.856v10.305h11.002c.199 0 .37.058.516.177.142.12.213.274.213.46a.646.646 0 01-.213.48.734.734 0 01-.516.2h-11.689a.722.722 0 01-.511-.2.639.639 0 01-.213-.48V.68c0-.185.071-.349.213-.481a.722.722 0 01.511-.199h15.543a.667.667 0 01.682.68c0 .424-.227.636-.682.636zM160.042 27.178c0 .455-.227.68-.687.68-.487 0-.729-.225-.729-.68V3.936c0-.186.062-.345.194-.482.128-.132.308-.199.535-.199h8.518c1.027 0 1.979.089 2.845.261.871.172 1.61.473 2.225.897a4.326 4.326 0 011.435 1.696c.34.707.516 1.59.516 2.654 0 3.755-2.254 5.632-6.766 5.632h-1.325a.741.741 0 01-.516-.198.63.63 0 01-.214-.482c0-.185.071-.34.214-.46a.773.773 0 01.516-.18h1.325c1.652 0 2.959-.305 3.916-.92.956-.613 1.434-1.744 1.434-3.396 0-.852-.137-1.55-.407-2.098a3.068 3.068 0 00-1.136-1.277c-.488-.304-1.075-.52-1.776-.64-.7-.12-1.463-.181-2.291-.181h-7.836v22.615h.01z"/><path d="M163.806 27.178c0 .455-.228.68-.687.68a.76.76 0 01-.516-.18.618.618 0 01-.213-.5V20.23c0-.185.071-.34.213-.46a.775.775 0 01.516-.18c.455 0 .687.212.687.64v6.948zM173.346 27.413c-.038.159-.133.273-.275.38a.727.727 0 01-.426.119c-.227 0-.412-.106-.554-.318l-9.734-13.428c-.256-.371-.204-.747.246-.985.336-.168.772-.044.952.225l9.691 13.468c.109.132.133.375.1.539zM177.422 26.82c.256.372.199.68-.171.92a.65.65 0 01-.383.119c-.256 0-.459-.093-.601-.279l-7.623-10.464c-.17-.185-.184-.41-.042-.68a.702.702 0 01.644-.362c1.197 0 2.296-.173 3.295-.517.999-.345 1.856-.84 2.57-1.48a6.401 6.401 0 001.648-2.319c.384-.905.578-1.93.578-3.074 0-2.558-.687-4.4-2.055-5.53-1.373-1.131-3.38-1.697-6.036-1.697h-9.933c-.455 0-.687-.225-.687-.68 0-.424.227-.64.687-.64h9.933c3.025 0 5.364.684 7.021 2.058 1.657 1.374 2.485 3.534 2.485 6.489 0 2.451-.734 4.426-2.206 5.932-1.472 1.506-3.489 2.416-6.055 2.734l6.931 9.47zM.308 8.048c.184-1.66.696-2.876 2.428-3.878 1.733-1.003 3.419-1.113 5.55-1.113 3.09 0 4.52.874 4.909 1.077 2.14 1.091 3.167 2.796 3.082 5.111-.057.398-.298.6-.73.6-.227 0-.406-.065-.534-.198a.542.542 0 01-.152-.481c.057-.985-.17-1.856-.904-2.805-.73-.954-2.675-1.966-5.847-1.988-3.172-.022-4.394.521-5.374 1.44-.98.919-1.363 2.73-.677 4.293.687 1.564 2.391 2.545 3.149 2.955a23.1 23.1 0 002.547 1.18l.644.278c1.112.455 2.135.883 3.063 1.299.928.415 1.719.848 2.377 1.298.743.455 1.268.959 1.58 1.52.399.64.498 1.307.3 1.996-.086.318-.318.482-.687.482-.284-.053-.488-.155-.602-.3a.522.522 0 01-.085-.5c.227-.8-.241-1.532-1.41-2.195-1.17-.667-2.87-1.466-5.095-2.399l-.644-.238c-.8-.345-1.628-.724-2.485-1.14a8.91 8.91 0 01-2.268-1.537C.88 11.471.166 9.885.308 8.048zM10.671 27.337c0 .186-.07.34-.213.46a.715.715 0 01-.469.181h-.047c-1.453-.08-2.817-.371-4.086-.879-1.269-.508-2.362-1.21-3.276-2.116a8.762 8.762 0 01-1.988-2.955 7.983 7.983 0 01-.578-3.436c.057-.424.312-.64.772-.64a.874.874 0 01.492.22c.128.12.18.287.152.5-.086 2.075.643 3.873 2.182 5.392a9.067 9.067 0 002.827 1.838c1.084.455 2.267.707 3.555.76.227 0 .407.066.535.198.119.133.17.292.142.477z"/><path d="M19.917 20.482c-.156.76-.937 2.363-2.717 3.37-1.78 1.008-4.843 1.11-5.937 1.105-1.761-.01-3.679-.623-4.99-1.454-1.312-.83-1.78-1.63-2.07-2.27-.056-.159-.122-.654.375-.87.497-.216.805.084.952.349.227.534.558.972.984 1.316.431.345.914.632 1.459.857.54.225 2.102.685 3.47.685 1.368 0 3.588.062 5.264-.99 1.677-1.05 1.965-2.314 1.913-3.41-.052-1.09-.379-1.524-.72-1.899-.425-.455-1.112-.94-2.054-1.458-.942-.517-2.24-1.122-3.897-1.815a70.76 70.76 0 01-3.276-1.44 17.521 17.521 0 01-2.42-1.356c-1.685-1.17-2.395-2.412-2.139-3.715.057-.238.284-.618.857-.521.573.097.582.574.559.76-.086.455.042.896.383 1.338.34.437.843.866 1.5 1.277.654.41 1.435.826 2.335 1.236.9.411 1.832.818 2.803 1.22 1.799.772 3.19 1.44 4.175 1.996.985.561 1.719 1.104 2.207 1.639.568.587.904 1.17 1.003 1.758.1.592.142 1.532-.019 2.292zM20.046 9.408c-.057.424-.299.64-.73.64-.516-.052-.743-.29-.686-.72a7.264 7.264 0 00-.431-2.954 6.745 6.745 0 00-1.539-2.438c-.743-.773-1.676-1.379-2.802-1.816-1.127-.437-2.391-.698-3.788-.777a.743.743 0 01-.516-.199.517.517 0 01-.17-.481c0-.186.07-.34.213-.46a.77.77 0 01.51-.181c3.254.159 5.796 1.17 7.623 3.035 1.686 1.731 2.457 3.847 2.316 6.351zM82.44 8.048c.185-1.661.696-2.876 2.429-3.878 1.733-1.003 3.418-1.114 5.549-1.114 3.091 0 4.52.875 4.91 1.078 2.139 1.091 3.166 2.796 3.081 5.11-.057.398-.298.602-.729.602-.227 0-.407-.067-.535-.2a.542.542 0 01-.151-.48c.056-.986-.17-1.856-.905-2.806-.729-.954-2.675-1.965-5.847-1.987-3.177-.022-4.393.521-5.373 1.44-.98.914-1.364 2.73-.677 4.293.686 1.564 2.39 2.544 3.148 2.955.758.415 1.605.804 2.547 1.18l.644.278c1.113.455 2.135.883 3.063 1.299.928.415 1.719.848 2.377 1.298.743.455 1.269.959 1.581 1.52.398.64.497 1.307.298 1.996-.085.318-.317.482-.686.482-.284-.053-.488-.155-.601-.3a.522.522 0 01-.085-.5c.227-.8-.242-1.533-1.411-2.195-1.17-.667-2.87-1.467-5.094-2.399l-.644-.238c-.8-.345-1.63-.725-2.486-1.14a8.908 8.908 0 01-2.268-1.537c-1.562-1.334-2.277-2.92-2.135-4.757zM92.799 27.337c0 .186-.071.34-.213.46a.715.715 0 01-.469.18h-.042c-1.454-.079-2.817-.37-4.086-.878-1.269-.508-2.363-1.21-3.276-2.116a8.763 8.763 0 01-1.989-2.955 7.984 7.984 0 01-.578-3.437c.057-.424.313-.64.772-.64a.874.874 0 01.493.22c.127.12.18.288.151.5-.085 2.076.644 3.874 2.183 5.393a9.065 9.065 0 002.826 1.838c1.084.455 2.268.706 3.556.76.227 0 .407.066.535.198.118.133.17.292.137.477z"/><path d="M102.05 20.482c-.156.76-.938 2.363-2.718 3.37-1.78 1.007-4.843 1.109-5.937 1.105-1.76-.01-3.678-.623-4.99-1.454-1.311-.83-1.78-1.63-2.069-2.27-.056-.159-.123-.654.374-.87.498-.217.805.084.952.349.227.534.559.971.985 1.316.43.345.913.632 1.458.857.54.225 2.102.685 3.47.685 1.369 0 3.816.022 5.346-1.016 1.529-1.038 1.888-2.293 1.836-3.384-.052-1.09-.378-1.524-.719-1.9-.426-.454-1.113-.94-2.055-1.457-.942-.517-2.24-1.122-3.896-1.815a70.887 70.887 0 01-3.277-1.44 17.526 17.526 0 01-2.419-1.356c-1.685-1.17-2.395-2.412-2.14-3.715.057-.239.284-.618.857-.521.573.097.582.574.559.76-.085.454.042.896.383 1.338.341.437.843.866 1.501 1.276.653.411 1.435.826 2.334 1.237.9.411 1.832.817 2.803 1.22 1.799.772 3.19 1.44 4.176 1.996.984.56 1.718 1.104 2.206 1.639.568.587.904 1.17 1.004 1.758.094.591.132 1.532-.024 2.292zM102.178 9.408c-.057.424-.298.64-.729.64-.516-.052-.744-.29-.687-.72a7.256 7.256 0 00-.431-2.954 6.74 6.74 0 00-1.538-2.438c-.744-.773-1.676-1.379-2.803-1.816-1.127-.437-2.391-.698-3.788-.777a.743.743 0 01-.516-.199.517.517 0 01-.17-.481c0-.186.07-.34.213-.46a.771.771 0 01.511-.181c3.253.159 5.795 1.17 7.623 3.035 1.685 1.731 2.457 3.847 2.315 6.351zM185.248 8.048c.185-1.661.696-2.876 2.429-3.878 1.732-1.003 3.418-1.114 5.548-1.114 3.092 0 4.522.875 4.91 1.078 2.14 1.091 3.167 2.796 3.082 5.11-.057.398-.298.602-.729.602-.227 0-.407-.067-.535-.2a.543.543 0 01-.152-.48c.057-.986-.17-1.856-.904-2.806-.729-.954-2.675-1.965-5.847-1.987-3.177-.022-4.393.521-5.373 1.44-.98.914-1.364 2.73-.677 4.293.686 1.564 2.39 2.544 3.148 2.955.758.415 1.605.804 2.547 1.18l.644.278c1.113.455 2.135.883 3.063 1.299.928.415 1.719.848 2.377 1.298.743.455 1.269.959 1.581 1.52.398.64.497 1.307.298 1.996-.085.318-.317.482-.686.482-.284-.053-.488-.155-.601-.3a.523.523 0 01-.086-.5c.228-.8-.241-1.533-1.41-2.195-1.17-.667-2.869-1.467-5.095-2.399l-.644-.238a61.49 61.49 0 01-2.485-1.14 8.9 8.9 0 01-2.268-1.537c-1.562-1.334-2.277-2.92-2.135-4.757zM195.607 27.337c0 .186-.071.34-.213.46a.717.717 0 01-.469.18h-.043c-1.453-.079-2.817-.37-4.085-.878-1.269-.508-2.363-1.21-3.277-2.116a8.762 8.762 0 01-1.988-2.955 7.996 7.996 0 01-.578-3.437c.057-.424.313-.64.772-.64a.87.87 0 01.492.22c.128.12.18.288.152.5-.085 2.076.644 3.874 2.183 5.393a9.063 9.063 0 002.826 1.838c1.084.455 2.268.706 3.555.76.228 0 .408.066.535.198a.542.542 0 01.138.477z"/><path d="M204.858 20.482c-.156.76-.938 2.363-2.718 3.37-1.78 1.007-4.843 1.109-5.937 1.105-1.761-.01-3.678-.623-4.99-1.454-1.311-.83-1.78-1.63-2.069-2.27-.057-.159-.123-.654.374-.87.497-.217.805.084.952.349.227.534.559.971.985 1.316.43.345.913.632 1.458.857.54.225 2.102.685 3.47.685 1.368 0 3.816.022 5.345-1.016 1.53-1.038 1.889-2.293 1.837-3.384-.052-1.09-.378-1.524-.719-1.9-.426-.454-1.113-.94-2.055-1.457-.942-.517-2.239-1.122-3.897-1.815a71.256 71.256 0 01-3.276-1.44 17.533 17.533 0 01-2.419-1.356c-1.685-1.17-2.396-2.412-2.14-3.715.057-.239.284-.618.857-.521.573.097.582.574.559.76-.086.454.042.896.383 1.338.341.437.843.866 1.501 1.276.653.411 1.434.826 2.334 1.237.9.411 1.832.817 2.803 1.22 1.799.772 3.191 1.44 4.176 1.996.984.56 1.718 1.104 2.206 1.639.568.587.904 1.17 1.003 1.758.095.591.133 1.532-.023 2.292zM204.986 9.408c-.057.424-.299.64-.729.64-.517-.052-.744-.29-.687-.72a7.256 7.256 0 00-.431-2.954 6.756 6.756 0 00-1.538-2.438c-.744-.773-1.676-1.379-2.803-1.816-1.127-.437-2.391-.698-3.788-.777a.743.743 0 01-.516-.199.516.516 0 01-.17-.481c0-.186.071-.34.213-.46a.77.77 0 01.511-.181c3.253.159 5.795 1.17 7.622 3.035 1.686 1.731 2.458 3.847 2.316 6.351z"/></g><defs><clipPath id="pclip0"><path fill="#fff" d="M0 0h205v28H0z"/></clipPath></defs></svg><svg fill="none" viewBox="0 0 31 18" id="mail-icon-bw" xmlns="http://www.w3.org/2000/svg"><path d="M29.319 0H.822L15.07 10.428 29.32 0z" fill="#5A5A5A"/><path d="M15.456 11.525a.655.655 0 01-.386.122.654.654 0 01-.386-.122L0 .778V17.47c0 .292.27.529.603.529h28.934c.333 0 .603-.237.603-.53V.779L15.456 11.525z" fill="#5A5A5A"/></svg><svg fill="none" viewBox="0 0 28 28" id="mail-icon-color" xmlns="http://www.w3.org/2000/svg"><path d="M7 10h14M7 10l7 5 7-5M7 10v8h14v-8m6 4c0 7.18-5.82 13-13 13S1 21.18 1 14 6.82 1 14 1s13 5.82 13 13z" stroke="url(#rpaint0_linear)"/><defs><linearGradient id="rpaint0_linear" x1="2.366" y1="10.769" x2="22.08" y2="6.97" gradientUnits="userSpaceOnUse"><stop stop-color="#00009A"/><stop offset=".794" stop-color="#EB3626"/><stop offset="1" stop-color="#EB3423"/></linearGradient></defs></svg><svg fill="none" viewBox="0 0 26 26" id="mail-icon-color-h" xmlns="http://www.w3.org/2000/svg"><path fill-rule="evenodd" clip-rule="evenodd" d="M13 26c7.18 0 13-5.82 13-13S20.18 0 13 0 0 5.82 0 13s5.82 13 13 13zM6.382 9L13 13.844 19.62 9H6.382zm6.797 5.353a.304.304 0 01-.179.057.304.304 0 01-.18-.057L6 9.361v7.754c0 .136.125.246.28.246h13.44c.155 0 .28-.11.28-.246V9.362l-6.82 4.991z" fill="url(#spaint0_linear)"/><defs><linearGradient id="spaint0_linear" x1="1.366" y1="9.769" x2="21.08" y2="5.97" gradientUnits="userSpaceOnUse"><stop stop-color="#00009A"/><stop offset=".794" stop-color="#EB3626"/><stop offset="1" stop-color="#EB3423"/></linearGradient></defs></svg><svg fill="none" viewBox="0 0 26 26" id="phone-icon-color" xmlns="http://www.w3.org/2000/svg"><circle cx="13" cy="13" r="12.5" stroke="url(#tpaint0_linear)"/><path d="M17.933 14.133c-.47-.464-1.056-.464-1.523 0-.356.353-.712.706-1.062 1.065-.096.099-.177.12-.294.054-.23-.126-.475-.228-.697-.365-1.032-.65-1.897-1.485-2.663-2.424-.38-.467-.718-.967-.955-1.53-.048-.113-.039-.188.054-.28.356-.345.703-.698 1.053-1.051.488-.49.488-1.065-.003-1.56l-.835-.837c-.287-.287-.571-.578-.861-.862-.47-.458-1.057-.458-1.524.003-.359.353-.703.715-1.068 1.062-.338.32-.509.713-.545 1.17-.056.746.126 1.449.383 2.134.527 1.419 1.33 2.678 2.302 3.834a14.24 14.24 0 004.716 3.69c.826.4 1.682.709 2.612.76.64.036 1.198-.126 1.643-.626.306-.341.65-.652.973-.979.479-.484.482-1.07.006-1.55-.569-.571-1.14-1.14-1.712-1.708z" stroke="url(#tpaint1_linear)"/><defs><linearGradient id="tpaint0_linear" x1="1.366" y1="9.769" x2="21.08" y2="5.97" gradientUnits="userSpaceOnUse"><stop stop-color="#00009A"/><stop offset=".794" stop-color="#EB3626"/><stop offset="1" stop-color="#EB3423"/></linearGradient><linearGradient id="tpaint1_linear" x1="7.683" y1="10.885" x2="17.54" y2="8.985" gradientUnits="userSpaceOnUse"><stop stop-color="#00009A"/><stop offset=".794" stop-color="#EB3626"/><stop offset="1" stop-color="#EB3423"/></linearGradient></defs></svg><svg fill="none" viewBox="0 0 26 26" id="phone-icon-color-h" xmlns="http://www.w3.org/2000/svg"><path fill-rule="evenodd" clip-rule="evenodd" d="M13 26c7.18 0 13-5.82 13-13S20.18 0 13 0 0 5.82 0 13s5.82 13 13 13zm3.582-10.99c.574-.572 1.296-.572 1.874 0 .704.7 1.407 1.399 2.107 2.103.586.589.582 1.31-.007 1.907-.137.138-.276.273-.415.409-.268.26-.535.52-.782.796-.55.615-1.234.814-2.022.77-1.146-.063-2.2-.442-3.216-.936a17.527 17.527 0 01-5.804-4.541C7.12 14.096 6.133 12.545 5.484 10.8c-.316-.844-.541-1.71-.471-2.627.044-.563.254-1.046.67-1.44.27-.256.53-.519.79-.782.174-.176.348-.351.525-.525.575-.567 1.297-.567 1.875-.004.238.233.473.47.708.707l.353.354c.17.173.342.344.513.516.172.17.343.342.514.515.604.608.604 1.315.004 1.92l-.186.186c-.368.372-.735.743-1.11 1.106-.115.114-.126.206-.067.346.291.693.707 1.308 1.175 1.882.943 1.157 2.007 2.184 3.278 2.984.165.102.34.188.515.274.115.057.23.114.343.175.144.08.243.055.361-.066.431-.442.87-.877 1.308-1.312z" fill="url(#upaint0_linear)"/><defs><linearGradient id="upaint0_linear" x1="1.366" y1="9.769" x2="21.08" y2="5.97" gradientUnits="userSpaceOnUse"><stop stop-color="#00009A"/><stop offset=".794" stop-color="#EB3626"/><stop offset="1" stop-color="#EB3423"/></linearGradient></defs></svg><svg fill="none" viewBox="0 0 25 26" id="pin" xmlns="http://www.w3.org/2000/svg"><path d="M24.851 9.674a.51.51 0 00-.718 0L10.278 23.42a5.41 5.41 0 01-3.84 1.571 5.41 5.41 0 01-3.839-1.57 5.329 5.329 0 01-1.583-3.81c0-1.444.562-2.797 1.583-3.81L16.454 2.054c1.47-1.458 3.78-1.37 5.37.208 1.59 1.578 1.68 3.87.21 5.329L9.02 20.505a1.881 1.881 0 01-2.642 0 1.845 1.845 0 010-2.62l8.817-8.749a.5.5 0 000-.712.51.51 0 00-.717 0L5.66 17.172a2.848 2.848 0 000 4.045 2.902 2.902 0 004.076 0L22.753 8.302c1.88-1.865 1.789-4.768-.21-6.752-2-1.984-4.926-2.074-6.806-.208L1.88 15.089A6.322 6.322 0 000 19.611c0 1.713.668 3.32 1.88 4.523A6.423 6.423 0 006.44 26a6.424 6.424 0 004.557-1.866l13.855-13.748a.5.5 0 000-.712z" fill="url(#vpaint0_linear)"/><defs><linearGradient id="vpaint0_linear" x1="1.313" y1="9.769" x2="20.321" y2="6.247" gradientUnits="userSpaceOnUse"><stop stop-color="#00009A"/><stop offset=".794" stop-color="#EB3626"/><stop offset="1" stop-color="#EB3423"/></linearGradient></defs></svg></svg>